<svg width="148" height="19" viewBox="0 0 148 19" fill="none" xmlns="http://www.w3.org/2000/svg">
<path d="M13.8 7.152L15.816 2.928C13.92 1.728 11.16 0.935999 8.496 0.935999C4.128 0.935999 1.296 3.048 1.296 6.408C1.296 12.312 10.008 10.872 10.008 13.056C10.008 13.656 9.48 13.92 8.664 13.92C6.96 13.92 3.984 12.744 2.256 11.304L0.192 15.48C2.424 17.184 5.688 18.168 8.616 18.168C12.408 18.168 15.696 16.512 15.696 12.768C15.696 6.672 6.984 7.992 6.984 5.88C6.984 5.376 7.392 5.184 8.016 5.184C9.48 5.184 12.096 6.216 13.8 7.152ZM17.1375 1.176V18H22.7055V11.928H27.9135V18H33.4815V1.176H27.9135V7.704H22.7055V1.176H17.1375ZM44.2875 1.008C38.9355 1.008 35.0475 4.584 35.0475 9.576C35.0475 14.592 38.9355 18.24 44.2875 18.24C49.6395 18.24 53.5275 14.568 53.5275 9.576C53.5275 4.608 49.6395 1.008 44.2875 1.008ZM44.3595 5.64C46.2795 5.64 47.8155 7.296 47.8155 9.6C47.8155 11.904 46.2795 13.608 44.3595 13.608C42.4395 13.608 40.7595 11.904 40.7595 9.6C40.7595 7.296 42.4155 5.64 44.3595 5.64ZM62.9788 1.176H55.0828V18H60.6508V13.632H62.9788C67.3468 13.632 69.8668 11.28 69.8668 7.2C69.8668 3.36 67.3468 1.176 62.9788 1.176ZM62.6908 9.408H60.6508V5.4H62.6908C63.8908 5.4 64.5868 6.12 64.5868 7.368C64.5868 8.664 63.8908 9.408 62.6908 9.408ZM78.7313 1.176V18H91.3073V13.368H84.2993V1.176H78.7313ZM101.147 1.008C95.7949 1.008 91.9069 4.584 91.9069 9.576C91.9069 14.592 95.7949 18.24 101.147 18.24C106.499 18.24 110.387 14.568 110.387 9.576C110.387 4.608 106.499 1.008 101.147 1.008ZM101.219 5.64C103.139 5.64 104.675 7.296 104.675 9.6C104.675 11.904 103.139 13.608 101.219 13.608C99.2989 13.608 97.6189 11.904 97.6189 9.6C97.6189 7.296 99.2749 5.64 101.219 5.64ZM122.814 13.056C121.998 13.392 121.182 13.608 120.606 13.608C118.422 13.608 116.814 11.928 116.814 9.6C116.814 7.32 118.398 5.64 120.558 5.64C121.95 5.64 123.582 6.336 124.71 7.416L127.854 3.6C126.054 2.016 123.198 1.008 120.582 1.008C115.086 1.008 111.102 4.632 111.102 9.6C111.102 14.592 114.942 18.24 120.222 18.24C122.622 18.24 125.718 17.328 127.59 16.08V9.144H122.814V13.056ZM138.061 1.008C132.709 1.008 128.821 4.584 128.821 9.576C128.821 14.592 132.709 18.24 138.061 18.24C143.413 18.24 147.301 14.568 147.301 9.576C147.301 4.608 143.413 1.008 138.061 1.008ZM138.133 5.64C140.053 5.64 141.589 7.296 141.589 9.6C141.589 11.904 140.053 13.608 138.133 13.608C136.213 13.608 134.533 11.904 134.533 9.6C134.533 7.296 136.189 5.64 138.133 5.64Z" fill="black"/>
</svg>
